<svg width="317.67" height="161.3" xmlns="http://www.w3.org/2000/svg" xmlns:svg="http://www.w3.org/2000/svg">
   <rect fill="#cccccb" height="136.91" width="317.45" y="0.01"/> // background-color
   <line stroke="#999" x1="0.55" x2="316.81" y1="136.35" y2="137.21"/> // down line
   <line fill="#fff" stroke="#fff" x1="316.1" x2="0.8" y1="1.33" y2="1.33"/> // top line
   <rect fill="#2b3087" height="14" width="313.32" x="2.11" y="2.39"/> // copy bar

   <rect fill="#d1d3d4" stroke="#d1d3d4" height="8.95" width="10.23" x="301.78" y="4.59"/>
   <line stroke="#231f20" x1="303.91" x2="309.87" y1="6.06" y2="12.06"/>
   <line stroke="#231f20" x1="309.87" x2="303.91" y1="6.06" y2="12.06"/>
   <line stroke="#000" x1="305.14" x2="305.11" y1="126.01" y2="106.75"/>
   <line stroke="#000" x1="305.51" x2="256.17" y1="125.63" y2="125.63"/>
   <line stroke="#fff" x1="304.71" x2="256.18" y1="107.14" y2="107.14"/>

   // Close button details
   <line stroke="#fff" x1="313.9" y1="3.84" x2="301.01" y2="3.84"/>
   <line stroke="#fff" x1="301.01" y1="15.24" x2="301.01" y2="3.46"/>
   <line stroke="#231f20" x1="313.52" y1="15.24" x2="313.53" y2="3.46"/>
   <line stroke="#231f20" x1="313.9" y1="14.99" x2="300.57" y2="14.99"/>


  // cancel button
  <!-- <circle cx="25.625" cy="54.625" fill="#7b7b7b" r="6.59979" stroke="#7b7b7b" stroke-width="5"/>
  <circle cx="23.14166" cy="53.5" fill="#ff0000" r="9.72479" stroke="#7b0000"/>
  <path d="m17.64782,50.69949l2.60632,-2.42448l2.76865,2.57547l2.76865,-2.57547l2.60635,2.42448l-2.76866,2.57549l2.76866,2.57549l-2.60635,2.42451l-2.76865,-2.57549l-2.76865,2.57549l-2.60632,-2.42451l2.76863,-2.57549l-2.76863,-2.57549z" fill="#ffffff" stroke="#ffffff"/> -->

  // progress bar shading
   <line stroke="#999" stroke-width="0.75px" x1="256.52" y1="125.2" x2="256.52" y2="106.87"/>
   <line stroke="#999" stroke-width="0.75px" x1="249.86" y1="112.31" x2="11.73" y2="112.34"/> 
   <line stroke="#fff" stroke-width="0.75px" x1="12.01" y1="112.1" x2="12.09" y2="121.45"/>
   <line stroke="#fff" stroke-width="0.75px" x1="250.28" y1="111.91" x2="250.28" y2="121.82"/>
   <line stroke="#fff" stroke-width="0.75px" x1="250.58" y1="121.43" x2="11.68" y2="121.43"/>

   <line stroke="#fff" stroke-width="0.75px" x1="0.97" y1="0.91" x2="1.01" y2="135.9"/>
   <line stroke="#999" stroke-width="0.75px" x1="316.54" y1="137.5" x2="316.49" y2="0.91"/>

   <text  fill="#231f20" font-size="8.57px" font-family="monospace" transform="translate(12.26 72.4)">Bbbbbb.list
    <tspan x="0" y="10.28">From ‘zzzzzzzzzzzzzzz’ to ‘ppppppppppppppp’</tspan>
    <tspan x="0" y="20.28">From ‘aaaaaaaaaaaaaaa’ to</tspan>
    <tspan x="0" y="30.28">From ‘ttttttttttttttt’ to</tspan>
    </text>

   <rect fill="#2b3087" height="6.8" width="235.62" x="13.2" y="113.44"/>
   <rect fill="#2b3087" height="6.8" width="5.62" x="19.81" y="113.44"/>

   // copy folder images
   <rect fill="#efe752" height="11.96367" id="svg_18" stroke="#231f20" transform="rotate(-15.1489, 27.6512, 56.4334)" width="19.54649" x="13.878" y="43.45154"/>
   <rect fill="#efe752" height="1.3" id="svg_19" stroke="#231f20" width="5.3" x="10.84834" y="43.29334"/>
   <rect fill="#efe752" height="11.96367" id="svg_20" stroke="#231f20" transform="rotate(2.71939, 34.7465, 53.1166)" width="19.54649" x="24.97325" y="47.13481"/>
   <rect fill="#efe752" height="1.3" id="svg_21" stroke="#231f20" width="5.3" x="39.5965" y="44.76665"/>
   <line fill="none" id="svg_22" stroke="#fcfcfc" transform="rotate(-178.386, 35.03, 48)" x1="25.83001" x2="44.23001" y1="47.6" y2="48.4"/>
   <line fill="none" id="svg_25" stroke="#ffffff" x1="11.74834" x2="29.54834" y1="48.26834" y2="43.36834"/>
  
  <text fill="#231f20" font-size="10px" font-family="monospace" transform="translate(266.58 119.42) scale(0.9 1)">Cancel</text>
  <text stroke="#d1d3d4" fill="#d1d3d4" stroke-width="0.4px" font-size="8.97px" font-family="monospace" transform="translate(4.6 12.09) scale(1.14 1)">Copying...</text>

</svg>